REM DIRINDEX 1\2\6,1\2\7,1\2\8,1\2\9,1\3\10,1\3\11,1\4\12,1\4\13,1\4\14,1\5\15,1\5\16,1\5\17
REM DIRNAME cjc029,folder01,folder02,folder03,folder04,folder05,folder06,folder07,folder08,folder09,folder10,folder11,folder12,folder13,folder14,folder15,folder16
TITLE ""
FILE "1400_2_sec14_1316_1331.mp3" MP3
  TRACK 01 AUDIO
    TITLE "0:"
    INDEX 01 00:00:00
  TRACK 02 AUDIO
    TITLE "13:cjc029_4253"
    INDEX 01 00:00:17
  TRACK 03 AUDIO
    TITLE "0:"
    INDEX 01 00:01:42
  TRACK 04 AUDIO
    TITLE "14:cjc029_4254"
    INDEX 01 00:01:48
  TRACK 05 AUDIO
    TITLE "0:"
    INDEX 01 00:04:15
  TRACK 06 AUDIO
    TITLE "13:cjc029_4255"
    INDEX 01 00:04:72
  TRACK 07 AUDIO
    TITLE "0:"
    INDEX 01 00:06:24
  TRACK 08 AUDIO
    TITLE "14:cjc029_4256"
    INDEX 01 00:06:30
  TRACK 09 AUDIO
    TITLE "0:"
    INDEX 01 00:10:04
  TRACK 10 AUDIO
    TITLE "13:cjc029_4257"
    INDEX 01 00:10:61
  TRACK 11 AUDIO
    TITLE "0:"
    INDEX 01 00:12:09
  TRACK 12 AUDIO
    TITLE "14:cjc029_4258"
    INDEX 01 00:12:16
  TRACK 13 AUDIO
    TITLE "0:"
    INDEX 01 00:15:21
  TRACK 14 AUDIO
    TITLE "13:cjc029_4259"
    INDEX 01 00:15:74
  TRACK 15 AUDIO
    TITLE "0:"
    INDEX 01 00:17:35
  TRACK 16 AUDIO
    TITLE "14:cjc029_4260"
    INDEX 01 00:17:39
  TRACK 17 AUDIO
    TITLE "0:"
    INDEX 01 00:21:17
  TRACK 18 AUDIO
    TITLE "13:cjc029_4261"
    INDEX 01 00:21:74
  TRACK 19 AUDIO
    TITLE "0:"
    INDEX 01 00:23:22
  TRACK 20 AUDIO
    TITLE "14:cjc029_4262"
    INDEX 01 00:23:28
  TRACK 21 AUDIO
    TITLE "0:"
    INDEX 01 00:24:33
  TRACK 22 AUDIO
    TITLE "13:cjc029_4263"
    INDEX 01 00:25:13
  TRACK 23 AUDIO
    TITLE "0:"
    INDEX 01 00:26:30
  TRACK 24 AUDIO
    TITLE "14:cjc029_4264"
    INDEX 01 00:26:34
  TRACK 25 AUDIO
    TITLE "0:"
    INDEX 01 00:31:31
  TRACK 26 AUDIO
    TITLE "13:cjc029_4265"
    INDEX 01 00:32:13
  TRACK 27 AUDIO
    TITLE "0:"
    INDEX 01 00:33:52
  TRACK 28 AUDIO
    TITLE "14:cjc029_4266"
    INDEX 01 00:33:56
  TRACK 29 AUDIO
    TITLE "0:"
    INDEX 01 00:36:07
  TRACK 30 AUDIO
    TITLE "13:cjc029_4267"
    INDEX 01 00:36:66
  TRACK 31 AUDIO
    TITLE "0:"
    INDEX 01 00:38:16
  TRACK 32 AUDIO
    TITLE "14:cjc029_4268"
    INDEX 01 00:38:22
  TRACK 33 AUDIO
    TITLE "0:"
    INDEX 01 00:41:02
  TRACK 34 AUDIO
    TITLE "13:cjc029_4269"
    INDEX 01 00:41:59
  TRACK 35 AUDIO
    TITLE "0:"
    INDEX 01 00:43:19
  TRACK 36 AUDIO
    TITLE "14:cjc029_4270"
    INDEX 01 00:43:25
  TRACK 37 AUDIO
    TITLE "0:"
    INDEX 01 00:47:19
  TRACK 38 AUDIO
    TITLE "13:cjc029_4271"
    INDEX 01 00:48:00
  TRACK 39 AUDIO
    TITLE "0:"
    INDEX 01 00:49:33
  TRACK 40 AUDIO
    TITLE "14:cjc029_4272"
    INDEX 01 00:49:39
  TRACK 41 AUDIO
    TITLE "0:"
    INDEX 01 00:53:04
  TRACK 42 AUDIO
    TITLE "13:cjc029_4273"
    INDEX 01 00:53:62
  TRACK 43 AUDIO
    TITLE "0:"
    INDEX 01 00:55:12
  TRACK 44 AUDIO
    TITLE "14:cjc029_4274"
    INDEX 01 00:55:20
  TRACK 45 AUDIO
    TITLE "0:"
    INDEX 01 00:57:46
  TRACK 46 AUDIO
    TITLE "13:cjc029_4275"
    INDEX 01 00:58:28
  TRACK 47 AUDIO
    TITLE "0:"
    INDEX 01 00:59:55
  TRACK 48 AUDIO
    TITLE "14:cjc029_4276"
    INDEX 01 00:59:63
  TRACK 49 AUDIO
    TITLE "0:"
    INDEX 01 01:03:10
  TRACK 50 AUDIO
    TITLE "13:cjc029_4277"
    INDEX 01 01:03:71
  TRACK 51 AUDIO
    TITLE "0:"
    INDEX 01 01:05:09
  TRACK 52 AUDIO
    TITLE "14:cjc029_4278"
    INDEX 01 01:05:15
  TRACK 53 AUDIO
    TITLE "0:"
    INDEX 01 01:09:12
  TRACK 54 AUDIO
    TITLE "13:cjc029_4279"
    INDEX 01 01:09:69
  TRACK 55 AUDIO
    TITLE "0:"
    INDEX 01 01:11:25
  TRACK 56 AUDIO
    TITLE "14:cjc029_4280"
    INDEX 01 01:11:33
  TRACK 57 AUDIO
    TITLE "0:"
    INDEX 01 01:14:23
  TRACK 58 AUDIO
    TITLE "13:cjc029_4281"
    INDEX 01 01:15:03
  TRACK 59 AUDIO
    TITLE "0:"
    INDEX 01 01:16:36
  TRACK 60 AUDIO
    TITLE "14:cjc029_4282"
    INDEX 01 01:16:42
  TRACK 61 AUDIO
    TITLE "0:"
    INDEX 01 01:19:40
  TRACK 62 AUDIO
    TITLE "13:cjc029_4283"
    INDEX 01 01:20:20
  TRACK 63 AUDIO
    TITLE "0:"
    INDEX 01 01:21:72
  TRACK 64 AUDIO
    TITLE "14:cjc029_4284"
    INDEX 01 01:22:01
  TRACK 65 AUDIO
    TITLE "0:"
    INDEX 01 01:24:04
